<?xml version="1.0" encoding="UTF-8" standalone="no"?>
<svg width="400px" height="100px" viewBox="0 0 400 100" version="1.1" xmlns="http://www.w3.org/2000/svg" xmlns:xlink="http://www.w3.org/1999/xlink" xmlns:sketch="http://www.bohemiancoding.com/sketch/ns">
    <!-- Generator: Sketch 3.3.1 (12002) - http://www.bohemiancoding.com/sketch -->
    <title>indicateur</title>
    <desc>Created with Sketch.</desc>
    <defs></defs>
    <g id="Page-1" stroke="none" stroke-width="1" fill="none" fill-rule="evenodd" sketch:type="MSPage">
        <g id="indicateur" sketch:type="MSArtboardGroup" fill="#000000">
            <path d="M178.173837,41.0036535 C177.179308,41.0036535 176.350534,41.3754477 175.633369,42.1688205 C174.915098,42.9632525 174.583588,43.9684738 174.583588,45.1336408 C174.583588,46.2447864 174.915098,47.1981048 175.633369,47.9925368 C176.350534,48.8399309 177.179308,49.2625688 178.173837,49.2625688 C179.223617,49.2625688 180.052391,48.8399309 180.769557,47.9925368 C181.486723,47.1981048 181.818233,46.2447864 181.818233,45.1336408 C181.818233,43.9684738 181.486723,42.9632525 180.769557,42.1688205 C180.052391,41.3754477 179.223617,41.0036535 178.173837,41.0036535" id="Fill-119" sketch:type="MSShapeGroup"></path>
            <path d="M200.05347,44.1813816 C199.114193,44.1813816 198.341775,44.4980952 197.678756,45.1866029 C197.015737,45.8740514 196.684228,46.6684834 196.684228,47.5688397 C196.684228,48.4681368 197.015737,49.2625688 197.678756,49.9510765 C198.341775,50.6395843 199.114193,50.9573571 200.05347,50.9573571 C200.991642,50.9573571 201.76627,50.6395843 202.428184,49.9510765 C203.091203,49.2625688 203.422712,48.4681368 203.422712,47.5688397 C203.422712,46.6684834 203.091203,45.8740514 202.428184,45.1866029 C201.76627,44.4980952 200.991642,44.1813816 200.05347,44.1813816" id="Fill-120" sketch:type="MSShapeGroup"></path>
            <path d="M177.162667,14.5224939 C177.223443,14.5426195 177.28643,14.5521527 177.346102,14.5521527 C177.562688,14.5521527 177.768224,14.4282213 177.856627,14.2259059 C180.37831,8.41172279 182.837006,5.03591635 185.178569,4.1885222 C185.981927,3.87392712 186.828381,3.87286788 187.63616,4.19064068 C187.880372,4.28385404 188.124584,4.4268518 188.369901,4.56773108 L188.385371,4.57620502 C188.624058,4.71390657 188.932362,4.65882595 189.104747,4.44697741 C189.276027,4.23618812 189.256136,3.93430395 189.058336,3.746818 L188.588697,3.29981758 C186.201828,1.3052636 183.959718,1.31585603 181.919829,3.33053562 C180.072216,5.1587885 178.401407,8.60768269 176.815687,13.8752966 C176.733914,14.1454035 176.886409,14.4292805 177.162667,14.5224939" id="Fill-121" sketch:type="MSShapeGroup"></path>
            <path d="M207.123864,77.1345004 C206.436534,76.9268888 205.78788,76.9967988 205.198898,77.3421119 C203.87065,78.1195961 202.896011,80.3355318 202.217522,84.1138504 C202.165585,84.4019645 202.367806,84.6763083 202.668375,84.7250335 C202.700421,84.7303297 202.731362,84.7335074 202.763408,84.7335074 C203.026405,84.7335074 203.260672,84.5513177 203.305978,84.2939217 C204.06845,80.0431808 205.068504,78.6587506 205.773515,78.2467052 C206.089554,78.0634562 206.412223,78.0306197 206.793459,78.1439587 C207.082977,78.2297573 207.394596,78.0772264 207.485209,77.7975863 C207.576927,77.5190055 207.415592,77.2224175 207.123864,77.1345004" id="Fill-122" sketch:type="MSShapeGroup"></path>
            <path d="M207.487684,74.2033823 C203.749361,72.8136559 200.137011,75.4172744 196.742353,81.9242022 C196.606434,82.1858352 196.716937,82.503608 196.98988,82.6349541 C197.069442,82.6730868 197.153425,82.6910939 197.236302,82.6910939 C197.438523,82.6910939 197.634114,82.5830512 197.731357,82.3976837 C200.826551,76.4606284 203.972577,74.0360219 207.087662,75.1905964 C207.37055,75.29758 207.692115,75.1609377 207.802618,74.8887123 C207.912016,74.6154277 207.771677,74.3093065 207.487684,74.2033823" id="Fill-123" sketch:type="MSShapeGroup"></path>
            <path d="M219.965026,36.9536795 C219.835738,36.5321009 219.378254,36.2905936 218.936242,36.4177027 L197.26546,42.6905379 C197.685372,41.2330199 197.916324,39.5424686 197.962735,37.5616848 C197.964945,37.4758861 197.945054,37.3922059 197.905273,37.3169997 C197.874332,34.9411184 197.455525,32.6806945 196.661007,30.6003418 C195.21231,26.5974637 192.759139,24.1506131 189.381057,23.3265223 C185.942197,22.4314622 182.469082,23.3593588 179.044588,26.083731 C175.794689,28.7699705 173.488487,32.4932085 172.190074,37.1485801 C170.887242,41.8124257 170.966804,46.1404913 172.422131,50.0056679 C173.856463,53.9640578 176.342785,56.4289155 179.783854,57.3229164 L179.917563,57.3631676 C179.921983,57.3642268 179.926403,57.3652861 179.930823,57.3674045 C179.754018,58.2974196 179.691031,59.259212 179.739653,60.3131585 C179.914248,62.0407833 180.33416,63.4442798 181.069006,64.6645274 C182.788436,66.7660649 184.717822,67.8327223 186.805227,67.8327223 C187.111321,67.8327223 187.357743,67.5954519 187.357743,67.303101 C187.357743,67.01075 187.111321,66.7734796 186.805227,66.7734796 C185.074747,66.7734796 183.43709,65.8445238 181.982868,64.0745292 C181.371785,63.0502416 180.998284,61.786565 180.840265,60.2390115 C180.791643,59.1469323 180.875626,58.1438294 181.097737,57.1735631 C181.141938,57.0475133 181.18393,56.9225226 181.253547,56.7784656 C182.496708,53.2522467 184.908992,51.865698 188.80202,52.4165042 C189.784393,52.5933978 190.502664,52.8063055 191.132532,53.1071305 C191.154633,53.1177229 191.177839,53.1272561 191.199939,53.13573 C192.339227,53.5636641 193.386798,54.2977192 194.380221,55.348488 C195.260932,56.4172639 196.149377,57.6205635 196.901904,58.6575621 C197.075394,58.8980102 197.422374,58.9573278 197.671006,58.7899675 C197.920744,58.6236664 197.983731,58.2931827 197.809135,58.0537938 C197.046663,57.0030251 196.146062,55.7827775 195.224466,54.6652765 C194.294029,53.6801808 193.330441,52.9482441 192.296131,52.4482815 C192.574599,52.1252125 192.858592,51.7703662 193.150321,51.3805649 C193.777979,52.4133265 194.586862,53.358171 195.606807,54.2521718 C198.184846,56.4479819 201.282251,57.5623052 204.810618,57.5623052 C208.447278,57.5623052 211.637505,56.3579463 214.560315,53.8867331 C217.526221,51.433527 218.853364,48.4665882 218.505279,45.0600638 C218.214656,42.6110947 217.340575,40.5593416 215.917294,38.9312856 L219.40588,37.9398344 C219.845683,37.815903 220.096525,37.3731396 219.965026,36.9536795 L219.965026,36.9536795 Z M191.250771,51.9928072 C190.619798,51.7332927 189.905947,51.538392 188.98435,51.3731502 C184.571958,50.7460785 181.623732,52.4493407 180.242442,56.3515908 L180.102103,56.3092211 C177.005804,55.5041967 174.772534,53.2670761 173.461966,49.6518808 C172.082886,45.9879604 172.014374,41.8728025 173.25643,37.4218647 C174.497381,32.9751639 176.686449,29.4298787 179.758438,26.8929924 C182.880154,24.4058906 186.018444,23.552141 189.100379,24.35081 C192.148057,25.0933391 194.278558,27.2520757 195.621172,30.9562474 C196.405745,33.0111782 196.802451,35.2472395 196.802451,37.6029952 L196.802451,37.6051137 L196.802451,37.606173 L196.802451,37.6114692 C196.803556,37.6845569 196.821237,37.7555262 196.849968,37.8180215 C196.782561,39.9026111 196.486412,41.6154065 195.978098,43.0623321 L192.214359,44.1448781 L189.287129,44.9382509 C188.846221,45.0579453 188.590959,45.4964717 188.714722,45.9191096 C188.818595,46.2686597 189.15121,46.4963968 189.512556,46.4963968 C189.586593,46.4963968 189.661735,46.4868637 189.737982,46.4667381 L191.792236,45.9095764 C191.786711,46.0176192 191.776766,46.1182472 191.776766,46.2315862 C191.776766,47.7325331 192.040869,49.0692973 192.584544,50.307552 C192.118221,50.9632233 191.678418,51.5203849 191.250771,51.9928072 L191.250771,51.9928072 Z M213.834309,53.0880641 C211.11814,55.3855615 208.1666,56.5030625 204.810618,56.5030625 C201.514308,56.5030625 198.743993,55.5073744 196.346073,53.4651545 C195.186895,52.4493407 194.32497,51.3614985 193.713887,50.1401917 C193.713887,50.1380732 193.712782,50.1348955 193.711677,50.132777 C193.152531,48.9623138 192.880693,47.6869856 192.880693,46.2315862 C192.880693,46.0133822 192.893953,45.8036521 192.913844,45.6013368 L214.750381,39.2638878 C216.224493,40.7807233 217.120674,42.7636256 217.406877,45.1723435 C217.717391,48.208133 216.517327,50.8689507 213.834309,53.0880641 L213.834309,53.0880641 Z" id="Fill-124" sketch:type="MSShapeGroup"></path>
            <path d="M128.43857,74.6093268 C123.310796,72.2266765 120.037428,67.7968824 115.634601,64.4553027 C112.094732,61.7696657 107.567379,60.072305 103.128067,59.9501585 C95.5621214,59.7415576 92.6044307,67.5716252 93.2111975,73.878034 C93.6228471,78.16268 96.29738,81.7104811 98.9727059,84.8728068 C102.373773,88.8909513 100.31949,93.0502782 101.204656,97.6688442 C101.854253,101.056427 104.988025,102.361967 108.087691,102.066912 C110.893096,101.80041 112.912479,99.1750535 114.141082,96.8368202 C120.631504,98.3477885 125.745795,94.2709502 125.691067,87.8027369 C131.56679,90.4796492 141.155292,91.3164322 143.828238,83.9432242 C147.015152,75.1573998 133.049205,75.6919891 128.43857,74.6093268 L128.43857,74.6093268 Z M114.550353,95.8461643 C115.349857,93.4048203 115.243574,91.116556 114.478175,88.6220704 C114.093493,87.3704651 113.455793,86.198969 112.80223,85.0742693 C112.746709,81.8278687 113.738951,80.6262325 115.778956,81.4717402 C116.572909,81.6811342 117.318478,82.1102333 118.036287,82.5107787 C118.148916,83.6267537 118.085463,84.8783589 116.971868,85.4446746 C116.46028,85.7040377 116.527699,86.6629671 117.176503,86.3322197 C118.485215,85.6675523 118.944455,84.4476735 119.001562,83.1294429 C120.95432,84.4730546 122.665164,86.1085489 124.718654,87.3141508 C125.246104,93.5579001 120.52998,97.2706783 114.550353,95.8461643 L114.550353,95.8461643 Z M141.985729,85.6937266 C140.765057,87.4021915 138.390339,88.0248215 136.501033,88.5776534 C132.830293,89.6500047 128.861324,88.2024891 125.588749,86.5447864 C125.548298,86.48292 125.488811,86.4567457 125.419013,86.4519868 C123.090298,85.0853735 121.202579,83.1651351 118.902417,81.7469664 C118.858793,81.6732026 118.792961,81.6414762 118.714438,81.6375104 C116.327029,80.3280046 112.98307,79.1128847 111.529209,82.237932 C110.993827,83.3911854 111.503828,84.6983118 111.955929,85.7659041 C113.503382,89.4302996 115.00166,92.0723129 113.534316,96.1578759 C111.114387,101.01439 104.34636,103.574708 102.135825,97.1889829 C101.152307,94.3478866 102.554613,91.1141766 102.029542,88.1660038 C101.716244,86.4051904 100.530471,85.0211276 99.4176683,83.7060696 C97.0540538,80.9117698 95.2646867,78.1682321 94.3470015,74.570462 C93.1310884,69.8051615 94.678542,64.3379152 99.0567808,61.8442226 C102.67438,59.7843882 107.337363,61.4579541 110.828056,62.9308507 C116.312752,65.2452893 119.857381,70.1803258 124.572712,73.5798061 C122.923734,72.9992136 121.36359,72.2068476 120.04298,71.0179019 C119.63133,70.6482897 118.927798,71.506488 119.342621,71.8808591 C121.722891,74.022389 124.857456,74.9599031 127.934914,75.5809468 C132.414677,76.6326759 137.50438,75.8157219 141.38848,78.625885 C143.707678,80.3042098 143.466558,83.6204084 141.985729,85.6937266 L141.985729,85.6937266 Z" id="Fill-26" sketch:type="MSShapeGroup" transform="translate(118.715311, 81.026707) scale(-1, 1) rotate(20.000000) translate(-118.715311, -81.026707) "></path>
            <path d="M274.1726,62.930703 C274.865071,70.8180414 272.423939,85.9282269 283.290122,86.6023359 C294.743856,87.3140412 289.756673,73.8336085 287.965169,67.3399534 C290.482368,68.0175598 292.746885,66.6719646 294.191279,64.4870119 C297.759423,66.4428899 300.561654,64.8760891 302.947703,61.5580036 C306.405681,56.7500583 305.011123,48.6729901 302.316436,43.8493069 C299.153981,38.1880148 294.420354,34.2439084 288.269436,32.1962256 C284.196803,30.8418871 278.467314,30.9424351 275.114255,33.9807348 C273.203842,35.7110355 271.999888,37.7491007 271.003151,40.0984276 C269.609468,43.3859116 269.86827,47.7077289 266.892048,50.1322483 C262.710998,53.5395155 256.171877,50.3237267 255.101696,57.2982638 C253.592601,67.1432289 269.301703,69.923601 274.1726,62.930703 L274.1726,62.930703 Z M258.830717,63.633665 C256.351115,61.5623752 255.537987,57.5964106 257.239435,54.8256562 C258.581533,52.6407034 261.424857,52.9755721 263.550355,52.4737062 C270.775825,50.7652638 270.07024,45.430097 272.61804,39.4208212 C277.040406,28.9900544 289.639513,31.9619049 296.596563,37.987793 C300.714662,41.5559371 302.998414,47.084331 303.634927,52.4055084 C304.187504,57.0184779 301.15445,67.3102261 294.654675,63.6800045 C295.323538,62.3929895 295.793928,61.0237874 296.174262,59.6248581 C296.336887,59.0303131 295.180147,58.6316183 295.020145,59.2174199 C294.612707,60.7125257 294.113464,62.1761555 293.366785,63.5383629 C292.189062,65.496864 290.151871,67.2971112 287.757079,66.318735 C287.688006,64.4301804 287.92495,62.5949599 288.762559,60.8734025 C289.025733,60.3313174 287.877736,59.9125129 287.607568,60.4659644 C286.690395,62.3527703 286.460446,64.4030761 286.573235,66.4796118 C286.574109,66.4866065 286.578481,66.4918525 286.579355,66.4988471 C286.567989,66.5635476 286.581104,66.6291224 286.616951,66.6946972 C287.355761,69.6429408 287.841014,72.4748983 288.954912,75.3654361 C289.815253,77.5976027 290.021595,79.8918468 289.326502,82.1764733 C287.225485,89.0836868 278.812674,84.5948723 277.005432,80.394587 C274.339598,74.2008274 276.393401,67.5017046 275.083653,61.0710013 C275.081905,61.0290334 275.073161,60.9896885 275.058298,60.951218 C274.615012,59.3931604 273.814125,57.8359772 272.105682,57.4678839 C271.852126,57.4128011 271.511137,57.5649347 271.514635,57.8578355 C271.519006,58.1804636 271.84688,58.3518324 272.117923,58.4104126 C273.154005,58.6342413 273.607783,59.9903284 273.871831,60.9101244 C271.635292,66.7349164 263.259203,67.3347074 258.830717,63.633665 L258.830717,63.633665 Z" id="Fill-11" sketch:type="MSShapeGroup"></path>
        </g>
    </g>
</svg>